<?xml version="1.0" encoding="UTF-8"?>
<!DOCTYPE svg PUBLIC "-//W3C//DTD SVG 1.1//EN" "http://www.w3.org/Graphics/SVG/1.1/DTD/svg11.dtd">
<!-- Creator: CorelDRAW -->
<svg xmlns="http://www.w3.org/2000/svg" xml:space="preserve" width="42.3333mm" height="42.3333mm" version="1.1" style="shape-rendering:geometricPrecision; text-rendering:geometricPrecision; image-rendering:optimizeQuality; fill-rule:evenodd; clip-rule:evenodd"
viewBox="0 0 117.86 117.86"
 xmlns:xlink="http://www.w3.org/1999/xlink"
 xmlns:xodm="http://www.corel.com/coreldraw/odm/2003">
 <defs>
  <style type="text/css">
   <![CDATA[
    .fil1 {fill:none}
    .fil0 {fill:#32A872}
   ]]>
  </style>
 </defs>
 <g id="Camada_x0020_1">
  <metadata id="CorelCorpID_0Corel-Layer"/>
  <g id="_2471243226896">
   <g>
    <path class="fil0" d="M12.35 16.47l49.72 -9.37c0.91,-0.17 1.8,0.43 1.97,1.35l2.33 12.37 23.13 -4.36c0.91,-0.17 1.8,0.43 1.97,1.35l15.39 81.61c0.17,0.91 -0.43,1.8 -1.35,1.97l-48.88 9.22 -0.06 0.05 -0.01 -0.04 -0.78 0.15c-0.91,0.17 -1.8,-0.43 -1.97,-1.35l-2.33 -12.37 -23.13 4.36c-0.91,0.17 -1.8,-0.43 -1.97,-1.35l-15.39 -81.61c-0.17,-0.91 0.43,-1.8 1.35,-1.97zm66.79 74.88l0.01 0.01 -0.06 0.05c-0.13,0.17 -0.3,0.31 -0.48,0.41l-16.35 13.97 40.71 -7.67 -14.68 -77.88 -21.25 4.01 12.4 65.79c0.09,0.47 -0.03,0.94 -0.29,1.3zm-22.37 14.37l14.54 -12.43 -16.3 3.07 1.76 9.35zm-41.91 -86.16l45.99 -8.67 14.68 77.88 -45.99 8.67 -14.68 -77.88z"/>
    <path class="fil0" d="M33.52 89.34l10.53 -1.99c1.02,-0.19 2,0.48 2.19,1.5l0 0c0.19,1.02 -0.48,2 -1.5,2.19l-10.53 1.99c-1.02,0.19 -2,-0.48 -2.19,-1.5l0 -0c-0.19,-1.02 0.48,-2 1.5,-2.19z"/>
    <path class="fil0" d="M58.19 84.69l10.53 -1.99c1.02,-0.19 2,0.48 2.19,1.5l0 0c0.19,1.02 -0.48,2 -1.5,2.19l-10.53 1.99c-1.02,0.19 -2,-0.48 -2.19,-1.5l-0 0c-0.19,-1.02 0.48,-2 1.5,-2.19z"/>
    <path class="fil0" d="M30.18 71.61l35.2 -6.64c1.02,-0.19 2,0.48 2.19,1.5l0 0c0.19,1.02 -0.48,2 -1.5,2.19l-35.2 6.64c-1.02,0.19 -2,-0.48 -2.19,-1.5l0 0c-0.19,-1.02 0.48,-2 1.5,-2.19z"/>
    <path class="fil0" d="M28.84 64.52l35.2 -6.64c1.02,-0.19 2,0.48 2.19,1.5l0 0c0.19,1.02 -0.48,2 -1.5,2.19l-35.2 6.64c-1.02,0.19 -2,-0.48 -2.19,-1.5l0 -0c-0.19,-1.02 0.48,-2 1.5,-2.19z"/>
    <path class="fil0" d="M27.51 57.47l35.2 -6.64c1.02,-0.19 2,0.48 2.19,1.5l0 0c0.19,1.02 -0.48,2 -1.5,2.19l-35.2 6.64c-1.02,0.19 -2,-0.48 -2.19,-1.5l0 0c-0.19,-1.02 0.48,-2 1.5,-2.19z"/>
    <path class="fil0" d="M21 21.98l35.01 -6.6c1.08,-0.2 2.14,0.52 2.34,1.6l4.63 24.57c0.2,1.08 -0.52,2.14 -1.6,2.34l-35.01 6.6c-1.08,0.2 -2.14,-0.52 -2.34,-1.6l-4.63 -24.57c-0.2,-1.08 0.52,-2.14 1.6,-2.34zm2.25 3.31l31.85 -6 4.01 21.25 -31.85 6 -4.01 -21.25z"/>
   </g>
   <rect class="fil1" x="0" y="0" width="117.86" height="117.86"/>
  </g>
 </g>
</svg>
