<?xml version="1.0" encoding="UTF-8"?>
<!DOCTYPE svg PUBLIC "-//W3C//DTD SVG 1.1//EN" "http://www.w3.org/Graphics/SVG/1.1/DTD/svg11.dtd">
<!-- Creator: CorelDRAW -->
<svg xmlns="http://www.w3.org/2000/svg" xml:space="preserve" width="217.071mm" height="49.804mm" version="1.1" style="shape-rendering:geometricPrecision; text-rendering:geometricPrecision; image-rendering:optimizeQuality; fill-rule:evenodd; clip-rule:evenodd"
viewBox="0 0 5625.26 1290.64"
 xmlns:xlink="http://www.w3.org/1999/xlink"
 xmlns:xodm="http://www.corel.com/coreldraw/odm/2003">
 <defs>
  <style type="text/css">
   <![CDATA[
    .fil4 {fill:#373435}
    .fil3 {fill:#373435;fill-rule:nonzero}
    .fil0 {fill:#32A872;fill-rule:nonzero}
    .fil2 {fill:#32A872;fill-rule:nonzero}
    .fil1 {fill:#38489A;fill-rule:nonzero}
   ]]>
  </style>
 </defs>
 <g id="Camada_x0020_1">
  <metadata id="CorelCorpID_0Corel-Layer"/>
  <g id="_2471236201408">
   <path class="fil0" d="M1395.74 351.39c-50.42,-9.03 -91.18,-35.51 -121.86,-79.42l-15.34 -27.73 -8.83 -24.58 57.99 -15.97c18.91,59.46 60.72,90.34 125.64,92.23 10.93,1.26 18.91,5.04 23.53,11.56 4.83,6.3 7.14,12.82 7.14,19.33 0,2.52 -0.42,5.25 -1.26,8.61l-92.87 345.83 -4.41 28.99c-1.26,10.72 -1.68,21.01 -1.68,30.88 0,41.81 8.82,80.05 26.89,114.92 22.27,43.49 53.58,78.37 93.91,104.63 40.55,26.26 85.3,40.55 134.47,42.65 52.95,0 102.11,-13.87 147.28,-41.39 44.96,-27.52 76.69,-61.35 94.97,-101.48 18.28,-40.13 27.52,-78.79 27.52,-115.77 0,-23.32 -2.73,-47.69 -8.19,-73.11 -0.63,-3.36 -1.05,-6.3 -1.05,-8.82 0,-5.25 1.26,-10.08 4.2,-14.71 4.2,-6.51 10.3,-11.14 18.49,-13.45 2.94,-0.84 5.67,-1.26 8.61,-1.26 4.83,0 9.66,1.26 14.08,3.57 6.72,4.2 11.14,10.09 13.66,17.86 6.51,29.63 9.87,58.41 9.87,86.35 0,55.26 -13.02,107.15 -38.87,155.69 -38.87,72.69 -101.48,123.33 -187.62,151.9 -32.14,9.88 -63.87,14.92 -95.6,14.92l-7.35 0c-59.88,-2.52 -114.72,-19.54 -164.51,-51.06 -50,-31.72 -87.61,-71.64 -113.04,-120.18 -25.42,-48.32 -38.24,-98.96 -38.24,-151.9 0,-11.98 0.63,-24.37 1.89,-36.98l6.09 -35.72 84.46 -316.41z"/>
   <path class="fil0" d="M2082.14 565.06l134.04 499.83 -62.19 0 -129.84 -485.12c-0.84,-2.52 -1.26,-5.04 -1.26,-7.98 0,-5.04 1.47,-9.88 4.41,-14.71 3.99,-6.72 10.29,-11.14 18.49,-13.66 2.52,-0.84 5.04,-1.26 7.98,-1.26 4.83,0 9.88,1.47 14.71,4.41 6.51,3.99 11.14,10.29 13.65,18.49zm-73.95 -161.99c2.52,-0.84 5.04,-1.26 7.98,-1.26 5.04,0 10.3,1.68 15.97,5.04 5.88,3.15 9.87,9.24 12.39,17.86 0.84,2.31 1.26,5.04 1.26,7.98 0,4.83 -1.89,10.3 -5.25,16.18 -3.57,6.09 -9.46,10.08 -17.65,12.18 -2.31,0.63 -5.04,1.05 -7.98,1.05 -4.83,0 -10.29,-1.68 -16.18,-5.04 -6.1,-3.57 -10.09,-9.46 -11.98,-17.65 -0.84,-2.52 -1.26,-5.04 -1.26,-7.98 0,-5.04 1.68,-10.29 5.25,-16.39 3.36,-5.89 9.24,-9.88 17.44,-11.98z"/>
   <path class="fil0" d="M2246.44 551.4l110.72 413.06 69.54 28.99 119.55 -443.94c2.31,-8.19 6.51,-13.87 12.19,-17.44 5.88,-3.57 11.35,-5.25 16.6,-5.25 2.52,0 5.25,0.42 7.98,1.26 8.4,2.1 14.08,6.09 17.23,11.98 3.36,5.88 5.04,11.35 5.04,16.39 0,2.31 -0.42,5.04 -1.26,7.98l-127.95 476.93c-2.52,9.45 -6.93,15.76 -13.03,18.91 -6.09,2.94 -11.35,4.62 -15.97,4.62 -3.78,0 -7.56,-0.84 -11.77,-2.52 -23.74,-9.87 -45.59,-18.91 -65.76,-27.1 -19.75,-8.61 -40.76,-17.44 -63.45,-26.47 -6.09,-25 -15.13,-59.25 -26.68,-102.74 -11.77,-43.49 -23.95,-89.29 -36.77,-137.41 -22.9,-85.3 -40.97,-152.32 -54,-201.28 -0.84,-3.15 -1.26,-6.09 -1.26,-8.61 0,-5.25 1.47,-10.09 4.2,-14.71 4.2,-7.35 10.3,-12.19 18.49,-14.08 2.52,-0.84 5.04,-1.26 7.98,-1.26 5.04,0 9.66,1.47 14.29,4.2 7.35,4.2 11.98,10.29 14.08,18.49z"/>
   <path class="fil0" d="M3111.84 661.71c-45.38,-39.5 -92.86,-59.25 -142.03,-59.25 -49.37,0 -96.86,19.96 -142.87,59.88l-107.78 401.92 -62.82 0 134.25 -499.83c2.52,-8.19 6.51,-14.08 12.4,-17.23 5.67,-3.36 11.14,-5.04 16.6,-5.04 2.52,0 5.04,0.42 7.98,1.26 11.14,3.36 18.91,12.61 23.32,27.73 41.81,-19.75 81.31,-29.62 118.29,-29.62 14.71,0 29.21,1.47 43.7,4.41 51.26,9.88 98.54,34.25 141.61,73.33 5.67,6.51 8.61,13.66 8.61,21.43 0,7.35 -2.94,14.29 -8.61,21.01 -6.72,6.09 -13.87,9.24 -21.64,9.24 -7.35,0 -14.29,-3.15 -21.01,-9.24z"/>
   <path class="fil0" d="M3598.23 653.09c-43.07,-33.41 -87.82,-50 -134.25,-50 -4.83,0 -10.09,0.21 -15.34,0.63 -52.53,3.36 -98.33,27.52 -137.2,72.69 -28.37,35.3 -43.49,73.11 -45.59,113.25 43.49,34.46 89.08,51.68 136.57,51.68 4.62,0 9.03,-0.21 13.66,-0.63 52.95,-3.15 98.75,-27.52 137.83,-72.69 27.1,-33.62 41.81,-71.86 44.33,-114.92zm-321.24 217.24c19.96,42.65 44.54,74.8 73.11,96.23 28.79,21.64 54,33.62 75.43,35.72 21.64,2.31 35.72,3.36 42.23,3.36 30.25,0 61.77,-8.4 94.13,-25.21 58.2,-33.62 92.44,-81.94 102.11,-145.18 2.94,-13.24 7.98,-20.59 15.13,-22.48 7.14,-1.89 11.98,-2.73 14.5,-2.73 8.19,0 15.76,3.57 22.69,10.93 5.04,5.46 7.56,11.56 7.56,18.49 0,1.68 -0.21,3.57 -0.63,5.67 -12.4,81.1 -56.1,143.5 -131.1,186.99 -38.66,21.85 -80.47,32.78 -125.64,32.78 -53.79,0 -100.01,-12.82 -138.88,-38.24 -38.66,-25.42 -68.49,-57.99 -89.29,-97.91 -20.59,-39.71 -31.09,-71.01 -31.51,-93.49 -0.42,-22.69 -0.63,-34.25 -0.63,-35.09 0,-43.91 10.72,-85.72 32.56,-125.64 21.64,-40.55 56.31,-73.95 103.37,-100.22 40.76,-21.85 81.31,-32.78 121.86,-32.78 13.24,0 26.26,1.26 39.5,3.78 53.37,9.03 102.53,33.62 147.7,73.96 5.67,6.51 8.61,13.66 8.61,21.43l0 3.78c-2.94,49.16 -15.34,93.07 -37.19,131.73 -22.06,38.45 -55.26,69.75 -99.59,93.49 -38.87,20.8 -68.28,31.51 -88.24,31.94 -19.96,0.42 -30.46,0.63 -31.73,0.63 -38.03,0 -80.26,-10.72 -126.06,-31.94z"/>
   <g>
    <path class="fil1" d="M3730.36 544.47l-30.46 -1.05c-0.63,-24.79 -0.84,-46.85 -0.84,-66.18 0,-19.75 0.84,-36.98 2.73,-51.27 1.89,-14.29 5.67,-25.84 11.56,-35.09 5.89,-9.24 14.29,-16.18 25.42,-20.38 11.35,-4.41 26.05,-6.51 44.54,-6.51 11.77,0 25.21,0.42 40.34,1.05 15.13,0.42 31.09,1.05 47.9,1.68 16.81,0.63 34.25,1.26 51.9,1.89 17.86,0.63 34.88,1.05 51.68,1.05 27.73,0 52.53,-0.21 73.75,-0.21 21.43,-0.21 40.34,-0.21 56.94,-0.42 16.6,-0.21 31.3,-0.63 43.7,-1.05 12.6,-0.42 23.95,-1.05 34.25,-1.89 10.51,-0.84 20.17,-1.68 28.99,-2.73 9.03,-1.26 18.07,-2.52 27.31,-4.2 3.36,9.87 5.25,17.86 5.25,24.16 0,13.66 -5.67,23.95 -17.23,31.09 -11.35,7.35 -28.15,10.93 -50.63,10.93 -21.01,0 -46.01,-1.26 -74.59,-3.99 -28.57,-2.52 -60.93,-5.04 -96.86,-7.56 -0.42,30.46 -1.26,62.82 -2.1,97.28 -1.05,34.46 -1.89,70.17 -2.94,106.94 -1.05,36.98 -2.1,74.59 -3.36,113.04 -1.05,38.45 -2.31,76.9 -3.57,115.34 -1.05,38.45 -2.31,76.69 -3.36,114.3 -1.26,37.82 -2.31,74.37 -3.36,109.67l-72.9 9.24 -5.46 -0.63c1.47,-39.29 3.15,-76.69 4.62,-112.82 1.26,-35.93 2.73,-71.23 3.99,-106.1 1.05,-34.67 2.31,-69.12 3.36,-103.79 1.05,-34.46 1.89,-70.17 2.31,-106.52 0.63,-36.56 1.26,-74.59 1.68,-114.09 0.42,-39.5 0.63,-81.52 0.63,-126.06 -11.77,-0.42 -23.74,-0.84 -35.72,-1.05 -12.19,-0.42 -24.37,-0.42 -36.98,-0.42 -12.6,0 -24.16,0.21 -35.09,0.63 -10.93,0.21 -20.8,1.68 -29.84,4.2 -9.03,2.52 -17.23,6.3 -24.37,11.56 -7.14,5.25 -13.23,12.6 -18.07,22.06 -5.04,9.66 -8.61,21.85 -11.35,36.56 -2.52,14.71 -3.78,32.78 -3.78,54.21l0 7.14z"/>
    <path class="fil1" d="M4155.6 893.45c0,-20.8 2.1,-41.81 6.51,-63.24 4.2,-21.22 10.72,-42.02 19.12,-61.98 8.4,-19.96 18.7,-38.66 31.09,-56.31 12.39,-17.44 26.68,-32.78 43.07,-46.01 16.18,-13.02 34.25,-23.53 54,-31.09 19.96,-7.56 41.6,-11.35 65.13,-11.35 26.26,0 49.37,5.46 69.54,16.6 20.38,11.14 37.19,25.63 51.05,43.91 13.66,18.07 24.16,38.87 31.09,61.98 7.14,23.11 10.72,46.85 10.72,71.01 0,20.8 -2.1,41.81 -6.51,63.24 -4.2,21.22 -10.72,42.02 -19.12,61.98 -8.61,19.96 -19.12,38.66 -31.51,56.31 -12.4,17.44 -26.68,32.78 -42.86,46.01 -16.18,13.02 -34.25,23.53 -54.21,31.09 -19.96,7.56 -41.6,11.35 -64.92,11.35 -26.26,0 -49.58,-5.46 -69.75,-16.6 -20.17,-11.14 -37.19,-25.63 -50.85,-43.91 -13.44,-18.07 -23.95,-38.87 -30.88,-61.98 -7.14,-23.11 -10.71,-46.85 -10.71,-71.01zm73.53 -29.21c0,13.87 1.05,27.94 3.36,42.44 2.1,14.29 5.46,28.16 9.88,41.39 4.62,13.45 10.08,25.84 16.81,37.4 6.72,11.77 14.5,21.85 23.74,30.46 9.03,8.61 19.33,15.34 30.67,20.17 11.35,5.04 23.95,7.56 37.82,7.56 14.92,0 28.15,-3.36 39.5,-9.87 11.35,-6.3 21.22,-14.92 29.41,-25.63 8.4,-10.72 15.34,-22.9 20.8,-36.56 5.46,-13.87 9.66,-27.94 13.02,-42.65 3.36,-14.71 5.67,-29.2 6.93,-43.49 1.26,-14.5 1.89,-27.73 1.89,-39.71 0,-14.29 -1.05,-28.36 -3.15,-42.65 -2.1,-14.29 -5.46,-28.15 -10.08,-41.39 -4.41,-13.24 -10.09,-25.63 -16.6,-37.19 -6.72,-11.56 -14.71,-21.64 -23.74,-30.04 -9.24,-8.62 -19.54,-15.34 -30.88,-20.17 -11.35,-5.04 -23.95,-7.35 -37.61,-7.35 -14.92,0 -28.15,3.15 -39.5,9.45 -11.56,6.3 -21.22,14.92 -29.63,25.63 -8.4,10.51 -15.13,22.69 -20.59,36.56 -5.46,13.66 -9.88,27.94 -13.03,42.44 -3.36,14.5 -5.67,29 -6.93,43.49 -1.47,14.5 -2.1,27.73 -2.1,39.71z"/>
   </g>
   <path class="fil2" d="M4652.07 1082.96c-7.35,0 -13.87,-1.47 -19.54,-4.41 -5.88,-2.94 -10.93,-6.93 -14.92,-11.98 -3.99,-4.83 -6.93,-10.51 -9.24,-16.81 -2.1,-6.3 -3.15,-12.82 -3.15,-19.33 0,-9.46 1.68,-17.86 4.83,-25 3.15,-7.14 7.14,-13.24 12.18,-18.07 5.04,-4.83 10.72,-8.4 16.81,-10.93 6.09,-2.31 12.18,-3.57 18.28,-3.57 6.93,0 13.23,1.26 19.12,3.99 5.88,2.52 10.92,6.09 14.92,10.5 4.2,4.41 7.35,9.67 9.66,15.76 2.1,6.09 3.36,12.39 3.36,19.12 0,7.56 -1.26,14.71 -3.78,21.85 -2.52,7.35 -6.09,13.65 -10.51,19.54 -4.62,5.67 -10.29,10.29 -16.81,13.87 -6.3,3.78 -13.44,5.46 -21.22,5.46z"/>
   <g>
    <path class="fil3" d="M4940.54 244.23c-3.78,32.99 -7.77,66.81 -11.56,101.69 -3.99,34.88 -7.77,70.17 -11.35,105.89 -3.57,35.72 -7.14,71.43 -10.51,107.57 -3.36,36.14 -6.3,71.86 -9.24,106.94 -2.73,35.3 -5.04,69.75 -7.14,103.58 -2.1,33.62 -3.78,65.97 -4.83,97.06l3.36 0.21c16.18,-39.71 33.62,-74.79 52.31,-105.26 18.7,-30.25 37.61,-55.68 56.94,-76.27 19.33,-20.59 38.45,-35.93 57.36,-46.43 18.91,-10.51 36.77,-15.76 53.58,-15.76 14.29,0 26.68,2.52 37.61,7.77 10.93,5.25 20.38,12.18 28.36,21.01 7.98,8.62 14.71,18.7 19.96,30.25 5.46,11.35 9.67,23.11 13.03,35.51 3.15,12.6 5.46,25 6.93,37.82 1.26,12.61 1.89,24.58 1.89,35.72 0,30.46 -2.94,59.04 -9.03,85.72 -6.09,26.47 -14.5,50.84 -25,72.69 -10.72,21.85 -23.32,41.18 -38.03,58.2 -14.5,17.02 -30.25,31.51 -47.27,43.07 -17.02,11.77 -35.09,20.59 -54,26.68 -18.7,6.09 -37.82,9.03 -56.73,9.03 -12.82,0 -25.63,-1.47 -38.45,-4.2 -12.82,-2.94 -25.21,-7.35 -37.61,-13.23 -12.19,-6.09 -23.74,-13.66 -34.46,-23.11 -10.93,-9.24 -20.8,-20.17 -29.41,-32.98 -7.14,18.07 -14.29,32.77 -21.85,44.33 -7.35,11.56 -14.08,20.8 -20.59,27.73l-15.97 -3.99c11.35,-31.51 19.54,-69.12 25,-113.25 5.25,-43.91 9.45,-93.7 12.18,-149.38 1.05,-23.74 2.31,-50.84 3.99,-81.1 1.47,-30.46 3.15,-62.4 4.62,-96.23 1.68,-33.62 3.36,-68.07 5.25,-103.16 1.89,-35.3 3.78,-69.33 5.67,-102.74 1.68,-33.2 3.57,-64.71 5.25,-94.34 1.47,-29.83 3.15,-56.1 4.62,-79.21 0.21,-4.83 1.68,-9.03 4.41,-12.61 2.94,-3.78 6.51,-6.51 10.93,-8.61 4.2,-2.31 9.24,-3.78 14.5,-4.83 5.46,-1.05 10.93,-1.68 16.18,-1.68 12.61,0 25.63,3.36 39.08,9.87zm201.7 577.15c0,-13.87 -1.05,-28.36 -3.36,-43.07 -2.1,-14.71 -5.46,-28.16 -10.09,-40.13 -4.62,-11.98 -10.71,-21.85 -18.07,-29.62 -7.56,-7.77 -16.6,-11.56 -27.31,-11.56 -12.6,0 -24.79,3.15 -37.19,9.46 -12.19,6.3 -23.95,14.71 -35.3,25.21 -11.35,10.51 -22.27,22.69 -32.78,36.56 -10.5,13.87 -20.17,28.36 -29.41,43.7 -9.03,15.13 -17.23,30.46 -24.58,46.01 -7.35,15.34 -13.66,30.05 -18.7,44.12 -5.25,13.87 -9.45,26.47 -12.18,38.03 -2.94,11.35 -4.41,20.38 -4.41,27.1 3.15,12.82 7.98,24.37 14.29,34.67 6.51,10.3 14.29,19.12 23.53,26.47 9.03,7.35 19.12,12.82 30.46,16.81 11.14,3.78 22.9,5.88 35.51,5.88 20.38,0 39.92,-5.25 57.99,-15.55 18.07,-10.51 34.04,-25.42 47.48,-45.17 13.66,-19.75 24.37,-43.7 32.15,-72.06 7.98,-28.58 11.98,-60.72 11.98,-96.86z"/>
    <path class="fil3" d="M5603.83 974.97c1.05,0.63 2.73,1.47 4.62,2.52 1.89,1.26 3.78,2.52 5.46,3.78 1.68,1.26 3.15,2.73 4.2,4.2 1.26,1.68 1.89,3.15 1.89,4.62 0,0.84 -0.21,1.47 -0.84,2.31 -11.56,16.18 -23.95,30.05 -37.19,41.81 -13.23,11.77 -26.89,21.64 -41.18,29.42 -14.29,7.98 -28.79,13.87 -43.49,17.65 -14.92,3.78 -29.41,5.67 -43.7,5.67 -24.58,0 -47.27,-5.04 -67.86,-15.13 -20.38,-10.09 -38.03,-23.74 -52.74,-41.18 -14.92,-17.44 -26.47,-37.82 -34.67,-61.35 -8.4,-23.53 -12.61,-48.74 -12.61,-75.64 0,-21.85 2.52,-43.91 7.35,-65.76 4.83,-22.06 11.77,-42.86 20.8,-62.82 9.25,-19.96 20.38,-38.45 33.41,-55.68 13.24,-17.02 28.16,-31.94 44.75,-44.54 16.81,-12.61 35.09,-22.48 55.26,-29.63 19.96,-7.35 41.39,-10.93 64.5,-10.93 15.13,0 29.63,2.1 43.28,6.3 13.87,3.99 25.84,9.87 36.14,17.65 10.5,7.77 18.7,17.23 24.79,28.36 6.09,11.35 9.24,24.16 9.24,38.66 0,20.8 -6.72,39.08 -20.38,54.63 -13.66,15.55 -32.57,28.78 -56.52,39.71 -23.95,10.93 -52.31,19.75 -84.88,26.47 -32.36,6.51 -67.65,11.56 -105.26,14.92l0 5.04c0,26.26 3.15,50.42 9.88,72.07 6.72,21.85 15.97,40.34 27.52,55.89 11.77,15.55 25.42,27.52 41.39,36.14 15.76,8.61 32.77,13.03 51.05,13.03 18.49,0 37.4,-4.62 56.73,-13.66 19.33,-9.24 39.08,-23.95 59.04,-44.54zm-57.99 -247.08c0,-9.45 -1.47,-18.28 -4.83,-26.47 -3.15,-8.19 -7.56,-15.34 -13.24,-21.43 -5.46,-6.09 -12.18,-10.93 -20.17,-14.29 -7.77,-3.57 -16.18,-5.25 -25.21,-5.25 -13.24,0 -25.42,2.31 -36.14,6.93 -10.93,4.83 -20.8,11.14 -29.42,19.33 -8.61,8.19 -16.18,17.65 -22.69,28.36 -6.51,10.72 -12.18,22.27 -16.81,34.25 -4.62,12.19 -8.4,24.58 -11.14,37.19 -2.94,12.82 -5.04,25.21 -6.3,37.4 29.2,-2.1 55.26,-5.67 78.37,-10.72 23.11,-5.04 42.65,-11.56 58.62,-19.33 15.76,-7.98 27.94,-17.44 36.35,-28.36 8.4,-10.93 12.6,-23.53 12.6,-37.61z"/>
   </g>
   <g>
    <path class="fil4" d="M17.13 117.02l618.75 -116.66c11.36,-2.14 22.41,5.4 24.55,16.76l29.03 153.98 287.8 -54.26c11.36,-2.14 22.41,5.4 24.55,16.76l191.45 1015.46c2.14,11.36 -5.4,22.41 -16.76,24.55l-608.23 114.67 -0.75 0.64 -0.09 -0.48 -9.67 1.82c-11.36,2.14 -22.41,-5.4 -24.55,-16.76l-29.03 -153.98 -287.8 54.26c-11.36,2.14 -22.41,-5.4 -24.55,-16.76l-191.45 -1015.46c-2.14,-11.36 5.4,-22.41 16.76,-24.55zm831.09 931.78l0.15 0.17 -0.78 0.66c-1.65,2.05 -3.68,3.8 -6.01,5.13l-203.49 173.87 506.57 -95.51 -182.7 -969.06 -264.42 49.85 154.35 818.66c1.11,5.89 -0.38,11.69 -3.66,16.22zm-278.32 178.83l180.95 -154.61 -202.89 38.25 21.94 116.36zm-521.56 -1072.16l572.24 -107.88 182.7 969.06 -572.23 107.88 -182.7 -969.06z"/>
    <path class="fil4" d="M280.61 1023.69l131.08 -24.71c12.63,-2.38 24.91,6 27.3,18.64l0 0c2.38,12.63 -6,24.91 -18.64,27.3l-131.08 24.71c-12.63,2.38 -24.91,-6 -27.3,-18.64l0 -0c-2.38,-12.63 6,-24.91 18.64,-27.3z"/>
    <path class="fil4" d="M587.58 965.81l131.08 -24.71c12.63,-2.38 24.91,6.01 27.3,18.64l0 0c2.38,12.63 -6,24.91 -18.64,27.3l-131.08 24.71c-12.63,2.38 -24.91,-6.01 -27.3,-18.64l0 0c-2.38,-12.63 6,-24.91 18.64,-27.3z"/>
    <path class="fil4" d="M239.04 803.16l438.04 -82.59c12.63,-2.38 24.92,6 27.3,18.64l0 0c2.38,12.63 -6.01,24.91 -18.64,27.3l-438.04 82.59c-12.63,2.38 -24.92,-6 -27.3,-18.64l0 0c-2.38,-12.63 6.01,-24.91 18.64,-27.3z"/>
    <path class="fil4" d="M222.4 714.94l438.04 -82.59c12.63,-2.38 24.92,6 27.3,18.64l0 0c2.38,12.63 -6.01,24.91 -18.64,27.3l-438.04 82.59c-12.63,2.38 -24.92,-6 -27.3,-18.64l0 0c-2.38,-12.63 6.01,-24.91 18.64,-27.3z"/>
    <path class="fil4" d="M205.86 627.16l438.04 -82.58c12.63,-2.38 24.92,6 27.3,18.64l0 0c2.38,12.63 -6.01,24.91 -18.64,27.3l-438.04 82.58c-12.63,2.38 -24.92,-6 -27.3,-18.64l0 0c-2.38,-12.63 6.01,-24.92 18.64,-27.3z"/>
    <path class="fil4" d="M124.77 185.54l435.67 -82.14c13.49,-2.54 26.61,6.41 29.15,19.9l57.65 305.8c2.54,13.49 -6.41,26.61 -19.9,29.15l-435.67 82.14c-13.49,2.54 -26.61,-6.41 -29.15,-19.9l-57.65 -305.8c-2.54,-13.49 6.41,-26.61 19.9,-29.15zm28.05 41.14l396.3 -74.72 49.86 264.45 -396.3 74.72 -49.86 -264.45z"/>
   </g>
  </g>
 </g>
</svg>
